<?xml version="1.0" encoding="utf-8"?>
<!-- Generator: Adobe Illustrator 23.0.3, SVG Export Plug-In . SVG Version: 6.00 Build 0)  -->
<svg version="1.1" id="Layer_1" xmlns="http://www.w3.org/2000/svg" xmlns:xlink="http://www.w3.org/1999/xlink" x="0px" y="0px"
	 viewBox="0 0 36 36" style="enable-background:new 0 0 36 36;" xml:space="preserve">
<style type="text/css">
	.st0{fill:#2B2B2B;}
</style>
<g>
	<path class="st0" d="M18.5,23.3l-3.5-3.5l-5.6,5.6l-1.6-1.6l5.7-5.6c-1.4-1.5-2.5-3.3-3.4-5.1h2.3c0.7,1.4,1.6,2.6,2.6,3.7
		c1.6-1.8,2.8-3.8,3.6-6H6V8.5h7.9V6.3h2.2v2.2h7.9v2.3h-3.3c-0.8,2.7-2.2,5.2-4.2,7.3l-0.1,0.1l2.9,2.8L18.5,23.3z M30.8,28.8h-2.3
		l-1.3-3.4H22l-1.3,3.4h-2.3l5.1-13.5h2.3L30.8,28.8z M26.4,23.2l-1.8-4.9l-1.8,4.9H26.4z"/>
</g>
</svg>
